<?xml version="1.0" encoding="UTF-8" standalone="no"?>
<!-- Created with Inkscape (http://www.inkscape.org/) -->

<svg
   xmlns:dc="http://purl.org/dc/elements/1.1/"
   xmlns:cc="http://creativecommons.org/ns#"
   xmlns:rdf="http://www.w3.org/1999/02/22-rdf-syntax-ns#"
   xmlns:svg="http://www.w3.org/2000/svg"
   xmlns="http://www.w3.org/2000/svg"
   xmlns:sodipodi="http://sodipodi.sourceforge.net/DTD/sodipodi-0.dtd"
   xmlns:inkscape="http://www.inkscape.org/namespaces/inkscape"
   width="999"
   height="1000"
   viewBox="0 0 264.31875 264.58334"
   version="1.1"
   id="svg8"
   sodipodi:docname="i.svg"
   inkscape:version="0.92.2 (5c3e80d, 2017-08-06)">
  <defs
     id="defs2" />
  <sodipodi:namedview
     id="base"
     pagecolor="#ffffff"
     bordercolor="#666666"
     borderopacity="1.0"
     inkscape:pageopacity="0.0"
     inkscape:pageshadow="2"
     inkscape:zoom="0.32173359"
     inkscape:cx="-869.42875"
     inkscape:cy="455.68344"
     inkscape:document-units="px"
     inkscape:current-layer="svg8"
     showgrid="false"
     units="px"
     showguides="false"
     inkscape:guide-bbox="true"
     inkscape:window-width="1920"
     inkscape:window-height="1017"
     inkscape:window-x="-8"
     inkscape:window-y="-8"
     inkscape:window-maximized="1">
    <sodipodi:guide
       position="30.994048,52.916667"
       orientation="0,1"
       id="guide10"
       inkscape:locked="false"
       inkscape:label=""
       inkscape:color="rgb(0,0,255)" />
    <sodipodi:guide
       position="173.12953,204.76449"
       orientation="0,1"
       id="guide4140"
       inkscape:locked="false" />
  </sodipodi:namedview>
  <metadata
     id="metadata5">
    <rdf:RDF>
      <cc:Work
         rdf:about="">
        <dc:format>image/svg+xml</dc:format>
        <dc:type
           rdf:resource="http://purl.org/dc/dcmitype/StillImage" />
        <dc:title />
      </cc:Work>
    </rdf:RDF>
  </metadata>
  <g
     inkscape:groupmode="layer"
     id="layer8"
     inkscape:label="i meredian" />
  <flowRoot
     xml:space="preserve"
     id="flowRoot77"
     style="font-style:normal;font-variant:normal;font-weight:normal;font-stretch:normal;font-size:40px;line-height:1.25;font-family:'Segoe MDL2 Assets';-inkscape-font-specification:'Segoe MDL2 Assets';letter-spacing:0px;word-spacing:0px;fill:#000000;fill-opacity:1;stroke:none"
     transform="matrix(1.1359108,0,0,1.1359108,-7.7792695,-27.962733)"><flowRegion
       id="flowRegion79"><rect
         id="rect81"
         width="10.878566"
         height="174.05705"
         x="460.00793"
         y="765.3338" /></flowRegion><flowPara
       id="flowPara83" /></flowRoot>  <flowRoot
     xml:space="preserve"
     id="flowRoot85"
     style="font-style:normal;font-variant:normal;font-weight:normal;font-stretch:normal;font-size:40px;line-height:1.25;font-family:'Segoe MDL2 Assets';-inkscape-font-specification:'Segoe MDL2 Assets';letter-spacing:0px;word-spacing:0px;fill:#000000;fill-opacity:1;stroke:none"
     transform="matrix(1.1359108,0,0,1.1359108,-7.7792695,-27.962733)"><flowRegion
       id="flowRegion87"><rect
         id="rect89"
         width="128.98871"
         height="206.69275"
         x="372.9794"
         y="760.67157" /></flowRegion><flowPara
       id="flowPara91" /></flowRoot>  <flowRoot
     xml:space="preserve"
     id="flowRoot93"
     style="font-style:normal;font-variant:normal;font-weight:normal;font-stretch:normal;font-size:40px;line-height:1.25;font-family:'Segoe MDL2 Assets';-inkscape-font-specification:'Segoe MDL2 Assets';letter-spacing:0px;word-spacing:0px;fill:#000000;fill-opacity:1;stroke:none"
     transform="matrix(1.1359108,0,0,1.1359108,-7.7792695,-27.962733)"><flowRegion
       id="flowRegion95"><rect
         id="rect97"
         width="38.85202"
         height="174.05705"
         x="-118.11015"
         y="170.12083" /></flowRegion><flowPara
       id="flowPara99" /></flowRoot>  <g
     aria-label="i"
     style="font-style:normal;font-variant:normal;font-weight:bold;font-stretch:normal;font-size:222.23695374px;line-height:1.25;font-family:'Merienda monospacified for Fira Code';-inkscape-font-specification:'Merienda monospacified for Fira Code Bold';letter-spacing:0px;word-spacing:0px;fill:#000000;fill-opacity:1;stroke:none;stroke-width:5.55592394"
     id="text103"
     transform="matrix(1.1857448,0,0,1.1857448,-12.921476,-29.16969)">
    <path
       d="m 79.906212,205.6496 c -8.944232,-0.31478 -14.371324,-8.01114 -17.778957,-14.08562 -3.259475,-6.22263 -4.889213,-13.70461 -4.889213,-22.44593 0,-8.74132 1.185264,-21.26067 3.555792,-37.55805 2.370527,-16.29737 3.555791,-28.96488 3.555791,-38.002516 0,-9.037636 -0.444474,-16.001061 -1.333422,-20.890274 2.666843,-0.296316 4.815134,-0.444474 6.444872,-0.444474 6.667109,0 11.482243,1.48158 14.445402,4.44474 2.963159,2.963159 4.444739,7.852372 4.444739,14.667638 0,2.22237 -1.851975,13.926846 -5.555924,35.113436 -3.555791,21.03843 -3.820266,33.6845 -3.968424,47.46319 0,6.73825 6.844277,18.21846 24.359562,11.93369 0.0857,21.04582 -15.502077,20.07791 -23.280218,19.80417 z M 83.239766,50.221278 c -12.445269,0 -18.667904,-4.222502 -18.667904,-12.667506 0,-2.963159 1.111185,-7.111583 3.333554,-12.44527 3.259475,-0.592632 6.074477,-0.888948 8.445004,-0.888948 12.445269,0 18.667904,4.222502 18.667904,12.667507 0,2.963159 -1.111185,7.111582 -3.333554,12.445269 -3.259475,0.592632 -6.074477,0.888948 -8.445004,0.888948 z"
       style="font-style:normal;font-variant:normal;font-weight:bold;font-stretch:normal;font-family:'Merienda monospacified for Fira Code';-inkscape-font-specification:'Merienda monospacified for Fira Code Bold';stroke-width:5.55592394"
       id="path104"
       inkscape:connector-curvature="0"
       sodipodi:nodetypes="scssscssscccssscsscs" />
  </g>
</svg>
